<?xml version="1.0" encoding="utf-8"?>
<!-- Generator: Adobe Illustrator 23.0.1, SVG Export Plug-In . SVG Version: 6.00 Build 0)  -->
<svg version="1.1" id="Capa_1" xmlns="http://www.w3.org/2000/svg" xmlns:xlink="http://www.w3.org/1999/xlink" x="0px" y="0px"
	 viewBox="0 0 450 450" style="enable-background:new 0 0 450 450;" xml:space="preserve">
<g>
	<path style="fill: #E8F7EE;" d="M216.7,45c-78.8,4.1-142.1,68.5-145,147.3c-1.7,45.6,16.6,87,46.7,116.2l89.9,89.9c9.2,9.2,24.2,9.2,33.5,0l89.9-89.9
		c28.9-27.9,46.8-67,46.8-110.3C378.4,110.7,305.2,40.3,216.7,45z M225,318.4c-66.4,0-120.2-53.8-120.2-120.2S158.6,77.9,225,77.9
		s120.2,53.8,120.2,120.2S291.4,318.4,225,318.4z"/>
	<path style="fill: #E8F7EE;" d="M310.6,155.9c0-3-1.7-5.8-4.4-7.1L228.6,110c-2.2-1.1-4.9-1.1-7.1,0l-77.7,38.8c-2.7,1.3-4.4,3.9-4.4,7.2
		c0,3.3,0,86.2,0,86.2c0,3,1.7,5.8,4.4,7.1l77.7,39.2c1.1,0.6,2.4,0.9,3.6,0.9c1.9,0,3.9-1,3.9-1l77.4-39.1c2.7-1.4,4.4-4.1,4.4-7.1
		C310.6,242.2,310.6,156,310.6,155.9z M225,126.1l59.9,29.9L225,185.8l-59.9-29.9L225,126.1z M155.3,168.8l61.8,30.8v68.9
		l-61.8-31.2V168.8z M294.7,237.3L233,268.5v-68.9l61.8-30.8L294.7,237.3L294.7,237.3z"/>
</g>
</svg>
